<?xml version="1.0" encoding="UTF-8"?>
<svg version="1.1" xmlns="http://www.w3.org/2000/svg" width="500" height="250">
<path d="M0 0 C1.32644531 -0.05607422 1.32644531 -0.05607422 2.6796875 -0.11328125 C5.125 0.3125 5.125 0.3125 6.78344727 1.99658203 C11.64587145 10.39056852 5.26515826 28.46850088 3.5625 37.625 C3.22921041 39.44455032 2.89652375 41.26421119 2.56445312 43.08398438 C1.75823802 47.49479313 0.94391153 51.90403159 0.125 56.3125 C2.134414 56.0416375 4.13564101 55.70436976 6.125 55.3125 C7.44652142 53.61535193 7.44652142 53.61535193 8.125 51.3125 C14.17514142 38.41381139 14.17514142 38.41381139 19.125 34.3125 C19.455 33.9825 19.785 33.6525 20.125 33.3125 C27.325 32.84798387 27.325 32.84798387 30.0625 34.4375 C31.59349826 37.13926164 32.0007742 39.20685505 32.125 42.3125 C30.875 45.1875 30.875 45.1875 29.125 47.3125 C28.135 47.3125 27.145 47.3125 26.125 47.3125 C25.795 46.6525 25.465 45.9925 25.125 45.3125 C22.78685403 44.85214433 22.78685403 44.85214433 20.125 45.3125 C17.9848745 47.7222451 17.9848745 47.7222451 16.3125 50.8125 C15.70792969 51.8334375 15.10335937 52.854375 14.48046875 53.90625 C14.03316406 54.7003125 13.58585937 55.494375 13.125 56.3125 C13.52332031 56.88097656 13.92164063 57.44945312 14.33203125 58.03515625 C17.51203409 62.66975893 20.11435534 67.0624834 22.125 72.3125 C27.51307735 72.94550288 27.51307735 72.94550288 32.16821289 70.77514648 C34.73361911 67.54654355 35.10174467 64.49382295 35.57421875 60.51953125 C35.67716751 59.77289719 35.78011627 59.02626312 35.88618469 58.25700378 C36.21086549 55.881485 36.51253968 53.50375506 36.8125 51.125 C37.12754991 48.7363314 37.44730197 46.34837947 37.77095032 43.96086121 C37.97060806 42.47704502 38.16443899 40.99243126 38.35197449 39.5070343 C39.01540788 34.42209212 39.01540788 34.42209212 40.125 33.3125 C42.3046875 33.07421875 42.3046875 33.07421875 45 33 C46.32644531 32.94392578 46.32644531 32.94392578 47.6796875 32.88671875 C50.125 33.3125 50.125 33.3125 51.953125 35.0078125 C53.39507603 37.84364952 53.34666643 39.34889104 53 42.5 C52.88527344 43.54800781 52.77054688 44.59601563 52.65234375 45.67578125 C51.93983143 50.58947732 51.09029529 55.47465674 50.14208984 60.34838867 C49.37161813 64.39787781 48.97643143 68.19133711 49.125 72.3125 C51.50156172 72.62061065 51.50156172 72.62061065 54.125 72.3125 C63.97065831 62.95065782 68.13055356 46.31881265 69.125 33.3125 C70.54123216 33.25802953 71.95808191 33.21949492 73.375 33.1875 C74.16390625 33.16429687 74.9528125 33.14109375 75.765625 33.1171875 C78.33231941 33.3296622 79.9166067 34.02595895 82.125 35.3125 C82.44457023 43.34049162 80.92780925 50.86541485 79.45898438 58.73242188 C79.27529297 59.76302734 79.09160156 60.79363281 78.90234375 61.85546875 C78.72952881 62.78383545 78.55671387 63.71220215 78.37866211 64.66870117 C78.11136303 67.45463158 78.43892232 69.61246221 79.125 72.3125 C82.81402852 72.74145681 84.58299251 72.69499527 87.66015625 70.5234375 C91.47238395 66.45662979 91.91336914 60.92042361 92.875 55.625 C93.08253906 54.58666016 93.29007813 53.54832031 93.50390625 52.47851562 C94.74133541 46.11174304 95.6104859 39.77720769 96.125 33.3125 C96.85364258 33.28373779 97.58228516 33.25497559 98.33300781 33.2253418 C99.17186523 33.192229 100.01072266 33.15911621 100.875 33.125 C104.01345039 33.0011138 105.66287707 33.04662105 108.40625 34.625 C110.79331122 36.96866011 110.83569347 39.05780149 111.125 42.3125 C111.57230469 41.83039063 112.01960937 41.34828125 112.48046875 40.8515625 C117.08918597 36.03648481 120.30953476 33.33121887 127.125 33 C130.85769926 33.10564243 133.18463423 33.89102231 136.125 36.3125 C138.70852459 39.98567442 138.22565724 43.66526781 137.875 47.9375 C137.8241626 48.6488208 137.7733252 49.3601416 137.72094727 50.09301758 C137.34225449 54.8845407 136.66534849 59.52260074 135.52734375 64.19921875 C135.06559795 66.62450494 134.99491354 68.84924997 135.125 71.3125 C136.22423541 72.61996709 136.22423541 72.61996709 138.9375 72.625 C142.17645245 72.5938661 142.17645245 72.5938661 144.375 70.5625 C147.71728976 66.26527031 148.57569566 62.52382262 149.4140625 57.140625 C149.57628799 56.1169986 149.57628799 56.1169986 149.74179077 55.07269287 C150.08409851 52.90355322 150.41716963 50.73311195 150.75 48.5625 C150.98116177 47.08714402 151.21292596 45.6118823 151.4453125 44.13671875 C152.01219005 40.52971129 152.57079561 36.92147896 153.125 33.3125 C154.5620809 33.25827053 155.99975462 33.21960277 157.4375 33.1875 C158.23800781 33.16429687 159.03851563 33.14109375 159.86328125 33.1171875 C162.125 33.3125 162.125 33.3125 165.125 35.3125 C166.40647953 43.61800307 164.55469015 52.38042193 163.125 60.5625 C162.83882813 62.26986328 162.83882813 62.26986328 162.546875 64.01171875 C162.08157733 66.78023992 161.60752932 69.54693969 161.125 72.3125 C165.81820836 70.88646094 169.31048646 69.02680435 173.29296875 66.23828125 C173.89753906 65.93277344 174.50210937 65.62726563 175.125 65.3125 C176.115 65.6425 177.105 65.9725 178.125 66.3125 C177.94921875 68.5859375 177.94921875 68.5859375 177.125 71.3125 C174.83203125 73.2265625 174.83203125 73.2265625 171.9375 74.9375 C170.99519531 75.50726563 170.05289062 76.07703125 169.08203125 76.6640625 C166.125 78.3125 166.125 78.3125 162.890625 79.55078125 C159.79980535 81.12946376 159.79980535 81.12946376 158.83984375 84.75390625 C158.55988375 86.12350792 158.30171326 87.49769707 158.0625 88.875 C155.8590502 99.25453098 152.17422337 109.0799267 143.3515625 115.62890625 C137.88595728 118.83018931 132.32963523 119.22188165 126.125 118.3125 C121.62208734 116.41653678 120.49663605 115.14153426 118.5 110.6875 C117.55144111 105.24842295 119.22332092 100.89149114 122.125 96.3125 C126.81555891 91.19770965 132.19360364 86.90255569 138.125 83.3125 C137.47273437 83.35890625 136.82046875 83.4053125 136.1484375 83.453125 C131.64373889 83.63915975 128.75246598 83.61502824 124.625 81.625 C121.90946746 79.1131324 121.17059159 77.80931339 120.125 74.3125 C120.01189388 66.67783662 121.22586133 59.13493987 122.71484375 51.66796875 C123.20440638 48.85648049 123.27890151 46.15967796 123.125 43.3125 C116.73248507 45.35941831 114.36819947 49.68699612 111.125 55.3125 C106.63489646 64.43412767 105.05259307 73.30280168 104.125 83.3125 C102.20958862 83.42091951 100.29240227 83.49828079 98.375 83.5625 C97.30765625 83.60890625 96.2403125 83.6553125 95.140625 83.703125 C91.48697888 83.22985478 90.40271895 82.12094958 88.125 79.3125 C86.9803125 80.3025 86.9803125 80.3025 85.8125 81.3125 C81.29712425 84.3227505 76.34109658 84.0849601 71.125 83.3125 C66.23821811 80.7673011 64.93787676 77.27405745 63.125 72.3125 C62.568125 73.22 62.01125 74.1275 61.4375 75.0625 C58.52889409 79.15027047 55.90995698 81.71751434 51.125 83.3125 C46.16313601 83.82550628 42.34970771 84.04732462 38 81.4375 C36.125 79.3125 36.125 79.3125 36.125 77.3125 C35.53074219 77.745625 34.93648437 78.17875 34.32421875 78.625 C27.84198215 82.9800952 22.90544241 84.51046115 15.125 83.3125 C11.7185507 82.27575456 10.629233 81.15997594 8.828125 78.1328125 C7.49865481 75.55989666 6.2903124 72.96348559 5.125 70.3125 C4.80144531 69.58289063 4.47789062 68.85328125 4.14453125 68.1015625 C3.45386169 66.51269826 2.78639481 64.91377165 2.125 63.3125 C1.135 63.3125 0.145 63.3125 -0.875 63.3125 C-2.33232062 69.96240964 -3.32636137 76.5267064 -3.875 83.3125 C-14.02817287 83.94269694 -14.02817287 83.94269694 -17.5625 81.3125 C-17.995625 80.6525 -18.42875 79.9925 -18.875 79.3125 C-19.473125 79.786875 -20.07125 80.26125 -20.6875 80.75 C-24.67249046 83.59642176 -28.53678701 83.7530619 -33.2890625 83.74609375 C-37.56768906 83.02868054 -40.0505553 80.45492854 -42.875 77.3125 C-43.39707031 77.745625 -43.91914063 78.17875 -44.45703125 78.625 C-49.74966088 82.62923117 -53.73667565 84.21238746 -60.4140625 83.84765625 C-64.0748552 83.05157911 -65.7380756 81.30419416 -67.875 78.3125 C-71.25818304 71.54613392 -68.66574674 61.25011654 -67.3203125 54.125 C-66.68887009 50.13694268 -66.74067821 46.34215365 -66.875 42.3125 C-76.88194849 48.03075628 -82.1369108 58.49923416 -85.125 69.375 C-86.13570942 73.96133235 -86.51094824 78.63730904 -86.875 83.3125 C-88.66633978 83.36641993 -90.45813899 83.40525571 -92.25 83.4375 C-93.24773437 83.46070313 -94.24546875 83.48390625 -95.2734375 83.5078125 C-97.875 83.3125 -97.875 83.3125 -99.875 81.3125 C-100.49966225 73.13115975 -98.83046209 65.2745779 -97.375 57.25 C-95.31036806 45.85200268 -95.31036806 45.85200268 -94.875 34.3125 C-93.30472683 32.74222683 -91.73230053 33.14275614 -89.5625 33.125 C-88.39267578 33.10373047 -88.39267578 33.10373047 -87.19921875 33.08203125 C-84.59217879 33.34054446 -83.0296113 33.82010776 -80.875 35.3125 C-80.125 38.9375 -80.125 38.9375 -79.875 42.3125 C-79.34390625 41.83039063 -78.8128125 41.34828125 -78.265625 40.8515625 C-77.55921875 40.21992187 -76.8528125 39.58828125 -76.125 38.9375 C-75.42890625 38.31101563 -74.7328125 37.68453125 -74.015625 37.0390625 C-69.52242161 33.41498239 -65.9813652 32.83010523 -60.2890625 32.9140625 C-56.63232207 33.51760218 -55.04899916 35.43721078 -52.875 38.3125 C-52.545 38.6425 -52.215 38.9725 -51.875 39.3125 C-51.30966134 47.114357 -52.27714402 54.79028162 -53.375 62.5 C-53.51808594 63.54736328 -53.66117188 64.59472656 -53.80859375 65.67382812 C-54.15752584 68.22103236 -54.51306969 70.76711602 -54.875 73.3125 C-52.9878125 72.9103125 -52.9878125 72.9103125 -51.0625 72.5 C-50.35480469 72.34917969 -49.64710938 72.19835937 -48.91796875 72.04296875 C-46.47402797 71.16913142 -45.43083514 70.39004189 -43.875 68.3125 C-43.11554163 65.89822017 -43.11554163 65.89822017 -42.7421875 63.15625 C-42.57589844 62.13273437 -42.40960938 61.10921875 -42.23828125 60.0546875 C-42.07714844 58.98476562 -41.91601562 57.91484375 -41.75 56.8125 C-41.58113281 55.77351563 -41.41226563 54.73453125 -41.23828125 53.6640625 C-40.16686194 46.89809174 -39.40565186 40.1414639 -38.875 33.3125 C-37.29166667 33.27083333 -35.70833333 33.22916667 -34.125 33.1875 C-32.80242187 33.15269531 -32.80242187 33.15269531 -31.453125 33.1171875 C-28.6524365 33.32936087 -27.12293695 33.62148436 -24.875 35.3125 C-23.22857056 39.58244551 -24.29448417 43.26381538 -25.25 47.625 C-26.95594648 55.83817494 -27.55226667 63.94369085 -27.875 72.3125 C-23.12903809 72.61299728 -23.12903809 72.61299728 -19.125 70.1875 C-14.71449781 64.55185832 -14.09593745 57.63907909 -12.9375 50.75 C-12.76492676 49.73929443 -12.59235352 48.72858887 -12.41455078 47.68725586 C-9.97947418 33.23560558 -7.9711299 18.73131909 -6.3046875 4.171875 C-5.6204596 -0.38135069 -4.28938559 0.11811352 0 0 Z M144.125 79.3125 C143.795 79.9725 143.465 80.6325 143.125 81.3125 C143.785 81.3125 144.445 81.3125 145.125 81.3125 C144.795 80.6525 144.465 79.9925 144.125 79.3125 Z M130.23828125 98.16015625 C127.39539363 101.29215108 125.125 103.87692599 125.125 108.3125 C127.05367967 110.63694564 127.05367967 110.63694564 130.4375 110.8125 C134.26482244 110.64791413 134.26482244 110.64791413 136.8125 107.875 C140.77828494 102.33860717 143.4286642 96.10177402 144.125 89.3125 C138.48842187 89.3125 134.1169718 94.36176985 130.23828125 98.16015625 Z " fill="#F6F6F6" transform="translate(197.875,64.6875)"/>
<path d="M0 0 C3.31101296 1.15165668 4.3174177 1.8848354 5.875 5 C6.44535173 8.25915277 6.18184791 9.5269428 4.375 12.3125 C0.61564132 14.85006711 -1.63312785 14.57039646 -6.125 14 C-8.1875 12.375 -8.1875 12.375 -9.125 10 C-9.125 6.07850898 -8.56786913 4.49348274 -5.9375 1.5625 C-3.125 0 -3.125 0 0 0 Z " fill="#EFEFEF" transform="translate(385.125,135)"/>
<path d="M0 0 C2 3 2 3 1.75 6 C1 9 1 9 -1 12 C-4.03815585 12.63991518 -6.94351658 12.49730717 -10 12 C-12.125 10.375 -12.125 10.375 -13 8 C-12.86850006 4.77825143 -12.58842409 2.77564994 -10.625 0.1875 C-6.69595488 -2.68372528 -4.22194883 -1.79657397 0 0 Z " fill="#F2F2F2" transform="translate(175,77)"/>
<path d="M0 0 C1.87264676 1.87264676 1.23607378 4.49759947 1.328125 6.9921875 C1 9 1 9 -0.2265625 10.7421875 C-2.50195295 12.35601068 -3.86049209 12.34004912 -6.625 12.25 C-7.81996094 12.22679688 -7.81996094 12.22679688 -9.0390625 12.203125 C-11 12 -11 12 -12 11 C-12.203125 9.0390625 -12.203125 9.0390625 -12.25 6.625 C-12.27578125 5.83351563 -12.3015625 5.04203125 -12.328125 4.2265625 C-11.92231616 1.47285965 -11.18894879 0.66728342 -9 -1 C-5.21801096 -2.26066301 -3.63636792 -1.42292658 0 0 Z " fill="#FAFAFA" transform="translate(366,77)"/>
</svg>
