<svg xmlns="http://www.w3.org/2000/svg" xmlns:xlink="http://www.w3.org/1999/xlink" width="500" zoomAndPan="magnify" viewBox="0 0 375 187.499995" height="250" preserveAspectRatio="xMidYMid meet" version="1.0"><defs><g/></defs><g fill="#d9d9d9" fill-opacity="1"><g transform="translate(75.301926, 110.801078)"><g><path d="M 22.082031 -17.832031 C 21.636719 -15.367188 20.964844 -11.265625 20.964844 -9.324219 C 20.964844 -3.730469 24.394531 0 29.992188 0 C 36.929688 0 42.527344 -7.238281 43.121094 -11.042969 C 43.347656 -12.382812 42.675781 -12.980469 41.703125 -12.980469 C 39.765625 -9.101562 37.003906 -6.492188 33.871094 -6.492188 C 30.738281 -6.492188 30.140625 -9.398438 30.8125 -13.054688 L 32.601562 -23.574219 C 32.976562 -25.8125 33.273438 -27.976562 33.273438 -29.617188 C 33.273438 -34.246094 30.289062 -37.304688 25.589844 -37.304688 C 19.546875 -37.304688 13.875 -31.335938 10.96875 -26.484375 L 11.5625 -29.917969 C 12.460938 -35.140625 11.789062 -37.304688 6.042969 -37.304688 C 3.28125 -37.304688 2.164062 -36.632812 2.164062 -36.632812 C 2.164062 -36.632812 2.910156 -34.914062 2.089844 -30.214844 L -1.863281 -7.386719 C -2.761719 -2.164062 -2.089844 0 3.65625 0 C 6.417969 0 7.535156 -0.671875 7.535156 -0.671875 C 7.535156 -0.671875 6.789062 -2.386719 7.609375 -7.085938 C 9.921875 -19.621094 17.011719 -30.738281 21.710938 -30.738281 C 23.351562 -30.738281 24.097656 -29.617188 23.5 -26.039062 Z M 22.082031 -17.832031 "/></g></g></g><g fill="#d9d9d9" fill-opacity="1"><g transform="translate(117.750346, 110.801078)"><g><path d="M -0.820312 -16.414062 C -1.34375 -13.429688 -1.492188 -10.816406 -1.492188 -9.324219 C -1.492188 -3.355469 2.089844 0 7.238281 0 C 14.472656 0 19.84375 -7.085938 20.589844 -11.042969 C 20.816406 -12.382812 20.144531 -12.980469 19.171875 -12.980469 C 17.234375 -8.953125 13.875 -6.492188 11.339844 -6.492188 C 8.65625 -6.492188 7.386719 -8.578125 8.132812 -13.054688 L 11.042969 -29.917969 C 11.9375 -35.140625 11.265625 -37.304688 5.519531 -37.304688 C 2.761719 -37.304688 1.640625 -36.632812 1.640625 -36.632812 C 1.640625 -36.632812 2.386719 -34.992188 1.566406 -30.214844 Z M 4.179688 -48.492188 C 4.179688 -45.882812 5.96875 -44.015625 8.65625 -44.015625 C 11.9375 -44.015625 14.027344 -46.554688 14.027344 -49.164062 C 14.027344 -51.851562 12.234375 -53.867188 9.398438 -53.867188 C 6.566406 -53.867188 4.179688 -51.554688 4.179688 -48.492188 Z M 4.179688 -48.492188 "/></g></g></g><g fill="#d9d9d9" fill-opacity="1"><g transform="translate(137.669022, 110.801078)"><g><path d="M 9.101562 -15.890625 L 10.667969 -15.890625 C 12.683594 -15.890625 13.578125 -14.773438 14.25 -12.683594 L 15.445312 -8.730469 C 17.234375 -2.761719 20.816406 0 25.8125 0 C 32.828125 0 38.496094 -7.085938 39.167969 -11.042969 C 39.390625 -12.382812 38.71875 -12.980469 37.75 -12.980469 C 36.109375 -9.550781 32.976562 -6.492188 29.769531 -6.492188 C 26.707031 -6.492188 25.21875 -8.429688 24.171875 -11.789062 L 23.351562 -14.398438 C 22.53125 -16.785156 21.039062 -18.578125 18.277344 -19.25 C 19.398438 -20.070312 20.292969 -21.261719 20.890625 -22.605469 L 22.15625 -25.292969 C 23.5 -28.199219 25.140625 -29.769531 27.378906 -29.769531 C 30.289062 -29.769531 30.960938 -27.082031 30.960938 -27.082031 C 30.960938 -27.082031 33.574219 -28.945312 33.574219 -32.230469 C 33.574219 -35.289062 31.78125 -37.304688 28.722656 -37.304688 C 25.515625 -37.304688 23.128906 -35.8125 20.144531 -29.769531 L 17.234375 -23.800781 C 16.339844 -22.007812 14.773438 -19.546875 12.757812 -19.546875 L 9.773438 -19.546875 L 15.890625 -54.535156 C 16.785156 -59.757812 16.113281 -61.921875 10.371094 -61.921875 C 7.609375 -61.921875 6.492188 -61.25 6.492188 -61.25 C 6.492188 -61.25 7.238281 -59.535156 6.417969 -54.835938 L -1.863281 -7.386719 C -2.761719 -2.164062 -2.089844 0 3.65625 0 C 6.417969 0 7.535156 -0.671875 7.535156 -0.671875 C 7.535156 -0.671875 6.789062 -2.386719 7.609375 -7.085938 Z M 9.101562 -15.890625 "/></g></g></g><g fill="#d9d9d9" fill-opacity="1"><g transform="translate(176.163547, 110.801078)"><g><path d="M 20.441406 -9.324219 C 20.441406 -3.355469 24.023438 0 29.171875 0 C 36.40625 0 41.78125 -7.085938 42.527344 -11.042969 C 42.75 -12.382812 42.078125 -12.980469 41.109375 -12.980469 C 39.167969 -8.953125 35.8125 -6.492188 33.273438 -6.492188 C 30.589844 -6.492188 29.320312 -8.578125 30.066406 -13.054688 L 32.976562 -29.917969 C 33.871094 -35.140625 33.199219 -37.304688 27.453125 -37.304688 C 24.695312 -37.304688 23.574219 -36.632812 23.574219 -36.632812 C 23.574219 -36.632812 24.246094 -35.066406 23.574219 -30.960938 C 22.457031 -24.320312 19.25 -16.339844 16.039062 -11.488281 C 14.101562 -8.503906 12.160156 -6.492188 10.519531 -6.492188 C 8.355469 -6.492188 7.3125 -8.429688 8.058594 -12.683594 L 11.042969 -29.917969 C 11.9375 -35.140625 11.265625 -37.304688 5.519531 -37.304688 C 2.761719 -37.304688 1.640625 -36.632812 1.640625 -36.632812 C 1.640625 -36.632812 2.386719 -34.914062 1.566406 -30.214844 L -0.597656 -17.832031 C -1.269531 -13.953125 -1.492188 -11.414062 -1.492188 -8.65625 C -1.492188 -3.507812 1.640625 0 6.640625 0 C 10.742188 0 14.027344 -2.089844 17.160156 -6.339844 C 18.351562 -7.910156 19.472656 -9.773438 20.515625 -11.863281 C 20.441406 -10.816406 20.441406 -9.996094 20.441406 -9.324219 Z M 20.441406 -9.324219 "/></g></g></g><g fill="#d9d9d9" fill-opacity="1"><g transform="translate(218.015147, 110.801078)"><g><path d="M 22.082031 -17.832031 C 21.636719 -15.367188 20.964844 -11.265625 20.964844 -9.324219 C 20.964844 -3.730469 24.394531 0 29.992188 0 C 36.929688 0 42.527344 -7.238281 43.121094 -11.042969 C 43.347656 -12.382812 42.675781 -12.980469 41.703125 -12.980469 C 39.765625 -9.101562 37.003906 -6.492188 33.871094 -6.492188 C 30.738281 -6.492188 30.140625 -9.398438 30.8125 -13.054688 L 32.601562 -23.574219 C 32.976562 -25.8125 33.273438 -27.976562 33.273438 -29.617188 C 33.273438 -34.246094 30.289062 -37.304688 25.589844 -37.304688 C 19.546875 -37.304688 13.875 -31.335938 10.96875 -26.484375 L 11.5625 -29.917969 C 12.460938 -35.140625 11.789062 -37.304688 6.042969 -37.304688 C 3.28125 -37.304688 2.164062 -36.632812 2.164062 -36.632812 C 2.164062 -36.632812 2.910156 -34.914062 2.089844 -30.214844 L -1.863281 -7.386719 C -2.761719 -2.164062 -2.089844 0 3.65625 0 C 6.417969 0 7.535156 -0.671875 7.535156 -0.671875 C 7.535156 -0.671875 6.789062 -2.386719 7.609375 -7.085938 C 9.921875 -19.621094 17.011719 -30.738281 21.710938 -30.738281 C 23.351562 -30.738281 24.097656 -29.617188 23.5 -26.039062 Z M 22.082031 -17.832031 "/></g></g></g><g fill="#d9d9d9" fill-opacity="1"><g transform="translate(260.463567, 110.801078)"><g><path d="M 11.414062 -29.917969 C 12.308594 -35.140625 11.636719 -37.304688 5.894531 -37.304688 C 3.132812 -37.304688 2.015625 -36.632812 2.015625 -36.632812 C 2.015625 -36.632812 2.761719 -34.914062 1.941406 -30.214844 L -2.835938 -1.714844 C -8.878906 1.269531 -12.757812 3.507812 -16.488281 6.714844 C -20.144531 9.847656 -22.753906 13.875 -22.753906 18.277344 C -22.753906 22.902344 -19.472656 26.113281 -14.398438 26.113281 C -3.355469 26.113281 3.582031 16.488281 6.492188 -0.820312 L 6.640625 -1.714844 C 11.042969 -3.878906 15.742188 -6.492188 18.503906 -8.578125 C 19.996094 -9.699219 20.816406 -10.519531 20.964844 -11.265625 C 21.1875 -12.308594 20.515625 -12.980469 19.546875 -12.980469 C 15.070312 -9.324219 7.386719 -6.265625 7.386719 -6.265625 Z M -15.144531 21.1875 C -17.457031 21.1875 -18.578125 19.769531 -18.578125 17.832031 C -18.578125 15.21875 -17.085938 12.683594 -14.175781 9.847656 C -11.9375 7.683594 -8.578125 5.519531 -3.65625 2.984375 C -5.820312 14.921875 -9.847656 21.1875 -15.144531 21.1875 Z M 4.550781 -48.492188 C 4.550781 -45.882812 6.339844 -44.015625 9.027344 -44.015625 C 12.308594 -44.015625 14.398438 -46.554688 14.398438 -49.164062 C 14.398438 -51.851562 12.609375 -53.867188 9.773438 -53.867188 C 6.9375 -53.867188 4.550781 -51.554688 4.550781 -48.492188 Z M 4.550781 -48.492188 "/></g></g></g><g fill="#d9d9d9" fill-opacity="1"><g transform="translate(280.755242, 110.801078)"><g><path d="M 1.492188 -3.730469 C 1.492188 -1.117188 3.28125 0.746094 5.96875 0.746094 C 9.25 0.746094 11.339844 -1.789062 11.339844 -4.402344 C 11.339844 -7.085938 9.550781 -9.101562 6.714844 -9.101562 C 3.878906 -9.101562 1.492188 -6.789062 1.492188 -3.730469 Z M 1.492188 -3.730469 "/></g></g></g></svg>