<!-- <svg width="24" height="24" viewBox="0 0 24 24" fill="none" xmlns="http://www.w3.org/2000/svg">
<path d="M12 8V16M8 12H16M7.8 21H16.2C17.8802 21 18.7202 21 19.362 20.673C19.9265 20.3854 20.3854 19.9265 20.673 19.362C21 18.7202 21 17.8802 21 16.2V7.8C21 6.11984 21 5.27976 20.673 4.63803C20.3854 4.07354 19.9265 3.6146 19.362 3.32698C18.7202 3 17.8802 3 16.2 3H7.8C6.11984 3 5.27976 3 4.63803 3.32698C4.07354 3.6146 3.6146 4.07354 3.32698 4.63803C3 5.27976 3 6.11984 3 7.8V16.2C3 17.8802 3 18.7202 3.32698 19.362C3.6146 19.9265 4.07354 20.3854 4.63803 20.673C5.27976 21 6.11984 21 7.8 21Z" stroke="white" stroke-width="2" stroke-linecap="round" stroke-linejoin="round"/>
</svg> -->

<svg xmlns="http://www.w3.org/2000/svg" width="24" height="24" viewBox="0 0 24 24" style="fill: rgba(255, 253, 253, 1);transform: ;msFilter:;"><path d="M9 20h6v2H9zm7.906-6.288C17.936 12.506 19 11.259 19 9c0-3.859-3.141-7-7-7S5 5.141 5 9c0 2.285 1.067 3.528 2.101 4.73.358.418.729.851 1.084 1.349.144.206.38.996.591 1.921H8v2h8v-2h-.774c.213-.927.45-1.719.593-1.925.352-.503.726-.94 1.087-1.363zm-2.724.213c-.434.617-.796 2.075-1.006 3.075h-2.351c-.209-1.002-.572-2.463-1.011-3.08a20.502 20.502 0 0 0-1.196-1.492C7.644 11.294 7 10.544 7 9c0-2.757 2.243-5 5-5s5 2.243 5 5c0 1.521-.643 2.274-1.615 3.413-.373.438-.796.933-1.203 1.512z"></path></svg>